# xmcd
#
# Track frame offsets:
# 182
# 19757
# 40832
# 64157
# 83357
# 99707
# 118232
# 122057
# 141857
# 162932
# 186557
# 205982
# 222632
#
# Disc length: 3213 seconds
#
#
# Revision: 1
# Processed by: cddbd v1.5.1PL2 Copyright (c) Steve Scherf et al.
# Submitted via: FreeRIP 2.945 
#
DISCID=c20c8b0d
DTITLE=The Jazz Workshop Series - Classic Standards
DYEAR=1988
DGENRE=Jazz
TTITLE0=A Night in Tunisia - Listening version
TTITLE1=Autumn Leaves - Listening version
TTITLE2='Round Midnight - Listening version
TTITLE3=Lo Flame - Listening version
TTITLE4=Embraceable You - Listening version
TTITLE5=Bertha The Dragon - Listening version
TTITLE6=Tuning note
TTITLE7=A Night in Tunisia - Play-along version
TTITLE8=Autumn Leaves - Play-along version
TTITLE9='Round Midnight - Play-along version
TTITLE10=Lo Flame - Play-along version
TTITLE11=Embraceable You - Play-along version
TTITLE12=Bertha The Dragon - Play-along version
EXTD=Bill Dobbins - Piano\nRufus Reid - Bass\nBilly Hart - Drums\nJohn Abercrombie - Guitar (Track 2]\nJimmy Knepper - Trombone (Tracks 4 and 6]\nLouis Smith - Flugelhorn (Track 5]\nBobby Watson - Alto Saxophone (Tracks 1 and 3)
EXTT0=
EXTT1=
EXTT2=
EXTT3=
EXTT4=
EXTT5=
EXTT6=
EXTT7=
EXTT8=
EXTT9=
EXTT10=
EXTT11=
EXTT12=
PLAYORDER=
